<svg height="512" viewBox="0 0 60 60" width="512" xmlns="http://www.w3.org/2000/svg"><g id="Page-1" fill="none" fill-rule="evenodd"><g id="066---Suitcases" fill-rule="nonzero"><g id="Icons_copy" transform="translate(1 1)"><path id="Shape" d="m58 14v35c0 1.6568542-1.3431458 3-3 3h-13v-22c-.0032948-1.1032019-.8967981-1.9967052-2-2h-8v-4c-.0006355-2.5896023-1.6612906-4.8871107-4.12-5.7l-.88-4.35c.027292-1.6372954 1.3624772-2.9502274 3-2.95h25c1.6568542 0 3 1.3431458 3 3z" fill="#00bcd4"/><path id="Shape" d="m55 11h-3c1.6568542 0 3 1.3431458 3 3v35c0 1.6568542-1.3431458 3-3 3h3c1.6568542 0 3-1.3431458 3-3v-35c0-1.6568542-1.3431458-3-3-3z" fill="#00838f"/><path id="Shape" d="m50 3v2c0 .55228475-.4477153 1-1 1h-13c-.5522847 0-1-.44771525-1-1v-2c0-1.65685425 1.3431458-3 3-3h9c1.6568542 0 3 1.34314575 3 3z" fill="#607d8b"/><path id="Shape" d="m47 0h-3c1.6568542 0 3 1.34314575 3 3v2c0 .55228475-.4477153 1-1 1h3c.5522847 0 1-.44771525 1-1v-2c0-1.65685425-1.3431458-3-3-3z" fill="#37474f"/><path id="Shape" d="m33 28v-6c0-1.6568542 1.3431458-3 3-3s3 1.3431458 3 3v6" fill="#00838f"/><rect id="Rectangle-path" fill="#00838f" height="27" rx="3" width="6" x="46" y="19"/><path id="Shape" d="m54 52v4c-.0032948 1.1032019-.8967981 1.9967052-2 2h-2c-1.1032019-.0032948-1.9967052-.8967981-2-2v-4z" fill="#545c60"/><rect id="Rectangle-path" fill="#ff9801" height="30" rx="2" width="42" y="28"/><path id="Shape" d="m40 28h-3c1.1032019.0032948 1.9967052.8967981 2 2v26c-.0032948 1.1032019-.8967981 1.9967052-2 2h3c1.1032019-.0032948 1.9967052-.8967981 2-2v-26c-.0032948-1.1032019-.8967981-1.9967052-2-2z" fill="#f57c00"/><path id="Shape" d="m35 43h-4c-.5522847 0-1-.4477153-1-1v-5.586c.0000566-.2651948.1054506-.5195073.293-.707l2-2c.3904999-.3903819 1.0235001-.3903819 1.414 0l2 2c.1875494.1874927.2929434.4418052.293.707v5.586c0 .5522847-.4477153 1-1 1z" fill="#ffdc00"/><path id="Shape" d="m35.707 35.707-2-2c-.3904999-.3903819-1.0235001-.3903819-1.414 0l-.793.793 1.207 1.207c.1875494.1874927.2929434.4418052.293.707v5.586c0 .5522847-.4477153 1-1 1h3c.5522847 0 1-.4477153 1-1v-5.586c-.0000566-.2651948-.1054506-.5195073-.293-.707z" fill="#fec108"/><path id="Shape" d="m27 24v4h-12v-4c0-.5522847.4477153-1 1-1h10c.5522847 0 1 .4477153 1 1z" fill="#bb193b"/><path id="Shape" d="m32 24v4h-5v-4c0-.5522847-.4477153-1-1-1h-10c-.5522847 0-1 .4477153-1 1v4h-5v-4c.0060539-3.3111977 2.6888023-5.9939461 6-6h10c.6388699-.0036675 1.2739999.097683 1.88.3 2.4587094.8128893 4.1193645 3.1103977 4.12 5.7z" fill="#a0522d"/><path id="Shape" d="m27.88 18.3c-.6060001-.202317-1.2411301-.3036675-1.88-.3l-3-.0000961c.6388699-.0035714 1.2739999.0977791 1.88.3000961 2.4587094.8128893 4.1193645 3.1103977 4.12 5.7v4h3v-4c-.0006355-2.5896023-1.6612906-4.8871107-4.12-5.7z" fill="#783e22"/><path id="Shape" d="m27.88 18.3c-.6060001-.202317-1.2411301-.3036675-1.88-.3h-7.71l4.99-8.96v-.02c1.653644.1765197 3.0037435 1.4013105 3.34 3.03l.38 1.9z" fill="#bb193b"/><path id="Shape" d="m23.28 9.02v.02l-4.99 8.96h-2.29c-1.496641-.0057932-2.9400072.5551189-4.04 1.57-.5401186-.3703977-.9882396-.8595679-1.31-1.43l-5.06-9.1c.18190316-.0285947.36587363-.04197437.55-.04h16.72c.14 0 .28.01.42.02z" fill="#ef314c"/><path id="Shape" d="m11.96 19.57c-1.2503129 1.1331154-1.96242199 2.7426272-1.96 4.43v4h-6.16c-1.14448728.0078845-2.23179428-.4995493-2.96086461-1.381802-.72907033-.8822526-1.02253377-2.0456979-.79913539-3.168198l2.3-11.4c.32605089-1.5810644 1.6112553-2.78619377 3.21-3.01l5.06 9.1c.3217604.5704321.7698814 1.0596023 1.31 1.43z" fill="#bb193b"/></g><g id="Layer_12"><g fill="#000"><path id="Shape" d="m56 11h-6v-3c1.1045695 0 2-.8954305 2-2v-2c0-2.209139-1.790861-4-4-4h-9c-2.209139 0-4 1.790861-4 4v2c0 1.1045695.8954305 2 2 2v3h-6c-.9796688.0033159-1.9235166.3687453-2.65 1.026-.7247787-1.7777842-2.4309127-2.95991937-4.35-3.014v-2.012c-.0049584-3.86393756-3.1360624-6.99504164-7-7h-3c-3.8639376.00495836-6.99504164 3.13606244-7 7v2.012c-2.23731629.06188104-4.13998746 1.6506115-4.6 3.841l-2.3 11.398c-.2890326 1.4041968.0714645 2.8638242.981 3.972.081.1.17.19.257.282-.83505651.5556896-1.33714717 1.4919498-1.338 2.495v26c0 1.6568542 1.34314575 3 3 3h38c1.6568542 0 3-1.3431458 3-3v-26c0-1.6568542-1.3431458-3-3-3h-7v-3c-.0033091-2.8007806-1.6736771-5.3307118-4.248-6.434l-.741-3.675c.0577137-1.0575508.9298841-1.8867485 1.989-1.891h25c1.1045695 0 2 .8954305 2 2v35c0 1.1045695-.8954305 2-2 2h-9c-.5522847 0-1 .4477153-1 1s.4477153 1 1 1h1v3c0 1.6568542 1.3431458 3 3 3h2c1.6568542 0 3-1.3431458 3-3v-3c2.209139 0 4-1.790861 4-4v-35c0-2.209139-1.790861-4-4-4zm-39 7c-1.4384074-.0001873-2.8414902.445613-4.016 1.276-.1765603-.1894695-.3308945-.3984916-.46-.623l-4.256-7.653h14.332l-3.9 7zm-8-11c.00330612-2.76005315 2.2399468-4.99669388 5-5h3c2.7600532.00330612 4.9966939 2.23994685 5 5v2h-13zm-6.939 17.647 2.3-11.4c.19570261-.9305498.84843636-1.6991579 1.735-2.043l4.687 8.428c.2094158.3651391.4600566.7050308.747 1.013-.9906177 1.2353203-1.53032356 2.7715419-1.53 4.355v3h-5.16c-.85574443.0033441-1.6673424-.3794921-2.209-1.042-.52855356-.6450741-.73797039-1.4941307-.57-2.311zm39.939 6.353v26c0 .5522847-.4477153 1-1 1h-29v-19c0-.5522847-.4477153-1-1-1s-1 .4477153-1 1v19h-7c-.55228475 0-1-.4477153-1-1v-26c0-.5522847.44771525-1 1-1h30v3.691c-.1509844.0843515-.2901846.1882473-.414.309l-2 2c-.3737134.3759099-.5842535.8839369-.586 1.414v5.586c0 1.1045695.8954305 2 2 2h1v10c0 .5522847.4477153 1 1 1s1-.4477153 1-1v-10h1c1.1045695 0 2-.8954305 2-2v-5.586c-.0017465-.5300631-.2122866-1.0380901-.586-1.414l-2-2c-.1238154-.1207527-.2630156-.2246485-.414-.309v-3.691h6c.5522847 0 1 .4477153 1 1zm-15-3h-10v-3h10zm5 15v-5.586l1.995-2h.01l1.995 2v5.586zm0-18v3h-3v-3c0-1.1045695-.8954305-2-2-2h-10c-1.1045695 0-2 .8954305-2 2v3h-3v-3c.0033061-2.7600532 2.2399468-4.9966939 5-5h10c2.7600532.0033061 4.9966939 2.2399468 5 5zm-5-7h-6.008l3.808-6.838c.937301.3230881 1.635979 1.1147967 1.84 2.085l.964 4.784c-.204-.018-.404-.031-.604-.031zm10-14c0-1.1045695.8954305-2 2-2h9c1.1045695 0 2 .8954305 2 2v2h-13zm2 7v-3h9v3zm15 46c0 .5522847-.4477153 1-1 1h-2c-.5522847 0-1-.4477153-1-1v-3h4z"/><path id="Shape" d="m40 26c.5522847 0 1-.4477153 1-1v-2c.0024539-1.0612146-.4199612-2.0792601-1.173-2.827-1.1671274-1.1533531-2.916129-1.4857622-4.425-.841-.3279698.1429062-.5547868.4499269-.5950113.8054102s.1122546.7054229.4.918c.2877453.212577.6670415.255496.9950113.1125898.6179436-.268891 1.3297538-.208498 1.8935628.1606579.563809.3691558.9037965.9974309.9044372 1.6713421v2c0 .5522847.4477153 1 1 1z"/><path id="Shape" d="m50 48c2.209139 0 4-1.790861 4-4v-21c0-2.209139-1.790861-4-4-4s-4 1.790861-4 4v21c0 2.209139 1.790861 4 4 4zm-2-25c0-1.1045695.8954305-2 2-2s2 .8954305 2 2v21c0 1.1045695-.8954305 2-2 2s-2-.8954305-2-2z"/><path id="Shape" d="m11 32c-.5522847 0-1 .4477153-1 1v2c0 .5522847.4477153 1 1 1s1-.4477153 1-1v-2c0-.5522847-.4477153-1-1-1z"/><path id="Shape" d="m17 14h-3c-.5522847 0-1 .4477153-1 1s.4477153 1 1 1h3c.5522847 0 1-.4477153 1-1s-.4477153-1-1-1z"/></g><path id="Shape" d="m5 39c-.55228475 0-1-.4477153-1-1v-5c0-.5522847.44771525-1 1-1h2c.55228475 0 1 .4477153 1 1s-.44771525 1-1 1h-1v4c0 .5522847-.44771525 1-1 1z" fill="#f5f5f5"/></g></g></g></svg>