<?xml version="1.0" standalone="no"?>
<svg xmlns="http://www.w3.org/2000/svg" viewBox="0 0 239.184 29" width="239.184" height="29"><g fill="#295c3c" color="#295c3c" transform="translate(0, 0) scale(0.29)"><svg width="100.0" height="100.0" x="0.0" y="0.0" viewBox="0 0 100 100"><title></title><path d="M52.46,35a.3.3,0,0,1-.27-.3l0-2.76a.27.27,0,0,1,.26-.26c7.36-.35,13.55-3.22,17.57-8.15s5.53-11.74,4-18.91l-.26-1.29a.3.3,0,0,0-.26-.22L72.26,3C65.52,2.7,59.72,4.71,55.47,8.85A23,23,0,0,0,49.4,19.78a.17.17,0,0,1-.31.07,12.16,12.16,0,0,0-2.73-2.77A18.53,18.53,0,0,0,30.88,14.5a.22.22,0,0,0-.16.25C31,16.51,33.32,30.23,48,31.51a.29.29,0,0,1,.25.28l-.05,2.88A.29.29,0,0,1,48,35a31.06,31.06,0,1,0,4.5,0Zm5.77-23.3A17.31,17.31,0,0,1,70.25,7a.27.27,0,0,1,.28.24A17.84,17.84,0,0,1,67,21c-3.24,4-8.33,6.33-14.4,6.68a.24.24,0,0,1-.26-.25C52.54,20.68,54.57,15.26,58.23,11.69ZM47.7,27.46c-5.25-.86-10.39-3.7-12.27-9.52a.22.22,0,0,1,.19-.29,12.29,12.29,0,0,1,8.3,2.54,11.42,11.42,0,0,1,4.14,6.9A.31.31,0,0,1,47.7,27.46ZM50,93A27.14,27.14,0,1,1,77.13,65.9,27.14,27.14,0,0,1,50,93Z"></path><path d="M50,41.72A24.19,24.19,0,1,0,74.18,65.9,24.19,24.19,0,0,0,50,41.72Zm6.15,29.7a4.86,4.86,0,0,1-1.58,1.7,7.76,7.76,0,0,1-2.42.92,4,4,0,0,0-.5.08V75.4c0,.42.2,1.34-1.34,1.34h-1c-1,0-1.46-.34-1.46-1.17V74.31s-1-.1-1.78-.25a3.35,3.35,0,0,1-1.47-.59c-.76-.49-.39-4.25.72-3.58a7.68,7.68,0,0,0,1.28.71,7.91,7.91,0,0,0,2.64.47,6.05,6.05,0,0,0,1.36-.14,2.86,2.86,0,0,0,1-.4,1.54,1.54,0,0,0,.58-.58,1.44,1.44,0,0,0,.2-.74,1.64,1.64,0,0,0-.31-1,3.53,3.53,0,0,0-.84-.78A8.73,8.73,0,0,0,50,66.78c-.48-.22-1-.44-1.57-.68a7.9,7.9,0,0,1-3.21-2.19,4.73,4.73,0,0,1-1.07-3.13,5,5,0,0,1,.56-2.46,4.92,4.92,0,0,1,1.54-1.7,6.32,6.32,0,0,1,1.54-.9c.14,0,.13-.13.13-.17V54c0-.26.25-.61.79-.61h2.25c.45,0,.73.23.73.55v1.29a.16.16,0,0,0,.15.16c.4,0,1.51.08,2,.16a10.08,10.08,0,0,1,2,.44.69.69,0,0,1,.42.6v2.24a.74.74,0,0,1-1,.56l-.19,0a7.79,7.79,0,0,0-1.14-.42,9.68,9.68,0,0,0-1.15-.22,7.26,7.26,0,0,0-1.09-.09,5.67,5.67,0,0,0-1.29.14,2.85,2.85,0,0,0-1,.38,1.93,1.93,0,0,0-.62.58,1.34,1.34,0,0,0-.21.76,1.49,1.49,0,0,0,.24.83,2.51,2.51,0,0,0,.69.69,6.68,6.68,0,0,0,1.09.64c.42.2.91.43,1.45.65a14.46,14.46,0,0,1,2,1,6.39,6.39,0,0,1,1.5,1.17,4.43,4.43,0,0,1,1,1.49,5.11,5.11,0,0,1,.34,2A5.21,5.21,0,0,1,56.15,71.42Z"></path></svg></g><line x1="41" y1="1" x2="41" y2="28" stroke="#000000" stroke-linecap="round"></line><path fill="#000000" fill-rule="nonzero" d="M2.62 17.38L2.62 2.23Q1.85 2.11 1.16 1.80Q0.48 1.49 0 0.82L0 0.82L0.79 0Q1.30 0.48 1.99 0.72Q2.69 0.96 3.65 0.96L3.65 0.96Q4.78 0.96 5.92 0.84Q7.06 0.72 8.57 0.72L8.57 0.72Q10.49 0.72 12.02 1.37Q13.56 2.02 14.64 3.16Q15.72 4.30 16.31 5.83Q16.90 7.37 16.90 9.17L16.90 9.17Q16.90 10.97 16.31 12.52Q15.72 14.06 14.64 15.19Q13.56 16.32 12.02 16.97Q10.49 17.62 8.57 17.62L8.57 17.62Q6.72 17.62 5.56 17.58Q4.39 17.54 3.74 17.50L3.74 17.50Q2.95 17.45 2.62 17.38L2.62 17.38ZM8.57 2.04L8.57 2.04Q7.25 2.04 6.17 2.15Q5.09 2.26 4.08 2.28L4.08 2.28L4.08 16.18Q4.82 16.22 5.92 16.26Q7.01 16.30 8.57 16.30L8.57 16.30Q10.15 16.30 11.42 15.78Q12.70 15.26 13.60 14.32Q14.50 13.37 14.98 12.06Q15.46 10.75 15.46 9.17L15.46 9.17Q15.46 7.58 14.98 6.28Q14.50 4.97 13.60 4.03Q12.70 3.10 11.42 2.57Q10.15 2.04 8.57 2.04ZM20.50 0.96L21.96 0.96L21.96 10.97Q21.96 12.22 22.32 13.20Q22.68 14.18 23.33 14.87Q23.98 15.55 24.89 15.92Q25.80 16.30 26.90 16.30L26.90 16.30Q28.01 16.30 28.93 15.92Q29.86 15.55 30.50 14.87Q31.15 14.18 31.51 13.20Q31.87 12.22 31.87 10.97L31.87 10.97L31.87 0.96L33.34 0.96L33.34 10.97Q33.34 12.46 32.88 13.67Q32.42 14.88 31.57 15.77Q30.72 16.66 29.54 17.14Q28.37 17.62 26.93 17.62L26.93 17.62Q25.46 17.62 24.28 17.14Q23.09 16.66 22.25 15.77Q21.41 14.88 20.95 13.67Q20.50 12.46 20.50 10.97L20.50 10.97L20.50 0.96ZM47.09 16.01L47.09 17.38L37.78 17.38L37.78 0.96L39.24 0.96L39.24 16.01L47.09 16.01ZM49.75 9.17L48.29 9.17Q48.29 7.37 48.86 5.83Q49.44 4.30 50.47 3.16Q51.50 2.02 52.96 1.37Q54.41 0.72 56.16 0.72L56.16 0.72Q58.75 0.72 60.05 1.63Q61.34 2.54 61.34 4.06L61.34 4.06Q61.34 4.73 61.06 5.29Q60.77 5.86 60.13 6.28Q59.50 6.70 58.51 6.92Q57.53 7.15 56.16 7.15L56.16 7.15L49.97 7.15Q49.75 8.09 49.75 9.17L49.75 9.17ZM56.16 2.04L56.16 2.04Q54.12 2.04 52.62 3.07Q51.12 4.10 50.35 5.90L50.35 5.90L56.16 5.90Q57.24 5.90 57.95 5.78Q58.66 5.66 59.08 5.42Q59.50 5.18 59.66 4.84Q59.83 4.49 59.83 4.06L59.83 4.06Q59.83 3.05 58.90 2.54Q57.96 2.04 56.16 2.04ZM55.20 17.62L55.20 17.62Q53.42 17.62 52.12 16.97Q50.81 16.32 49.96 15.18Q49.10 14.04 48.70 12.49Q48.29 10.94 48.29 9.17L48.29 9.17L49.75 9.17Q49.75 10.75 50.10 12.06Q50.45 13.37 51.13 14.30Q51.82 15.24 52.84 15.77Q53.86 16.30 55.20 16.30L55.20 16.30Q55.94 16.30 56.75 16.09Q57.55 15.89 58.28 15.60Q59.02 15.31 59.62 14.99Q60.22 14.66 60.60 14.42L60.60 14.42L61.22 15.50Q60.86 15.79 60.25 16.16Q59.64 16.54 58.85 16.86Q58.06 17.18 57.13 17.40Q56.21 17.62 55.20 17.62ZM75.82 16.01L75.82 17.38L64.58 17.38L64.58 0.96L75.34 0.96L75.34 2.33L66.05 2.33L66.05 8.02L73.66 8.02L73.66 9.38L66.05 9.38L66.05 16.01L75.82 16.01ZM89.38 11.38L89.02 12.46Q88.15 12.29 87.43 11.94Q86.71 11.59 86.11 11.17Q85.51 10.75 85.03 10.28Q84.55 9.82 84.19 9.38L84.19 9.38L81.84 6.48Q81.43 6.00 80.96 5.33Q80.50 4.66 80.09 4.01L80.09 4.01Q80.16 4.61 80.22 5.27Q80.28 5.93 80.28 6.48L80.28 6.48L80.28 17.38L78.82 17.38L78.82 0.74L79.27 0.74L85.66 8.88Q85.82 9.14 86.16 9.46L86.16 9.46L93.34 0.74L93.79 0.74L93.79 17.38L92.33 17.38L92.33 6.48Q92.33 5.88 92.39 5.12Q92.45 4.37 92.52 3.74L92.52 3.74Q92.02 4.44 91.46 5.20Q90.91 5.95 90.46 6.48L90.46 6.48L87.19 10.34Q87.67 10.68 88.21 10.96Q88.75 11.23 89.38 11.38L89.38 11.38ZM103.56 2.04L103.56 2.04Q102.79 2.04 102.34 2.08Q101.88 2.11 101.56 2.15Q101.23 2.18 100.94 2.23Q100.66 2.28 100.27 2.28L100.27 2.28L100.27 17.38L98.81 17.38L98.81 2.23Q98.04 2.11 97.36 1.80Q96.67 1.49 96.19 0.82L96.19 0.82L96.98 0Q97.49 0.48 98.18 0.72Q98.88 0.96 99.84 0.96L99.84 0.96Q100.39 0.96 100.78 0.92Q101.16 0.89 101.54 0.84Q101.93 0.79 102.40 0.76Q102.86 0.72 103.63 0.72L103.63 0.72Q104.76 0.72 105.68 1.12Q106.61 1.51 107.26 2.22Q107.90 2.93 108.26 3.88Q108.62 4.82 108.62 5.93L108.62 5.93Q108.62 7.06 108.26 8.00Q107.90 8.95 107.26 9.66Q106.61 10.37 105.68 10.76Q104.76 11.16 103.63 11.16L103.63 11.16Q103.18 11.16 102.79 11.16Q102.41 11.16 102.12 11.14L102.12 11.14Q101.78 11.14 101.50 11.11L101.50 11.11L101.50 9.79Q101.78 9.82 102.12 9.82L102.12 9.82Q102.41 9.84 102.78 9.84Q103.15 9.84 103.56 9.84L103.56 9.84Q104.38 9.84 105.05 9.55Q105.72 9.26 106.20 8.75Q106.68 8.23 106.94 7.51Q107.21 6.79 107.21 5.93L107.21 5.93Q107.21 5.06 106.94 4.36Q106.68 3.65 106.20 3.13Q105.72 2.62 105.05 2.33Q104.38 2.04 103.56 2.04ZM123.17 17.38L121.58 17.38L119.90 13.10Q119.64 12.43 119.30 11.90Q118.97 11.38 118.50 11.00Q118.03 10.63 117.41 10.44Q116.78 10.25 115.97 10.25L115.97 10.25L113.66 10.25L113.66 17.38L112.20 17.38L112.20 2.23Q111.43 2.11 110.75 1.80Q110.06 1.49 109.58 0.82L109.58 0.82L110.38 0Q110.88 0.48 111.58 0.72Q112.27 0.96 113.23 0.96L113.23 0.96Q113.78 0.96 114.17 0.92Q114.55 0.89 114.94 0.84Q115.32 0.79 115.79 0.76Q116.26 0.72 117.02 0.72L117.02 0.72Q118.10 0.72 118.99 1.08Q119.88 1.44 120.52 2.08Q121.15 2.71 121.51 3.58Q121.87 4.44 121.87 5.47L121.87 5.47Q121.87 7.13 121.06 8.20Q120.24 9.26 118.85 9.70L118.85 9.70Q119.64 10.06 120.13 10.68Q120.62 11.30 121.01 12.19L121.01 12.19L123.17 17.38ZM116.95 2.04L116.95 2.04Q116.18 2.04 115.73 2.08Q115.27 2.11 114.95 2.15Q114.62 2.18 114.34 2.23Q114.05 2.28 113.66 2.28L113.66 2.28L113.66 8.93L117 8.93Q117.74 8.93 118.38 8.69Q119.02 8.45 119.47 8.00Q119.93 7.56 120.18 6.91Q120.43 6.26 120.43 5.47L120.43 5.47Q120.43 3.89 119.48 2.96Q118.54 2.04 116.95 2.04ZM137.16 16.01L137.16 17.38L125.93 17.38L125.93 0.96L136.68 0.96L136.68 2.33L127.39 2.33L127.39 8.02L135 8.02L135 9.38L127.39 9.38L127.39 16.01L137.16 16.01ZM155.14 16.34L154.78 17.42Q153.91 17.26 153.24 16.92Q152.57 16.58 152.02 16.18Q151.46 15.77 151.02 15.31Q150.58 14.86 150.22 14.42L150.22 14.42L143.35 6.46Q142.92 5.98 142.42 5.28Q141.91 4.58 141.46 3.91L141.46 3.91Q141.50 4.54 141.56 5.22Q141.62 5.90 141.62 6.46L141.62 6.46L141.62 17.38L140.16 17.38L140.16 0.72L140.62 0.72L151.68 13.92Q151.85 14.11 152.04 14.34Q152.23 14.57 152.50 14.81L152.50 14.81Q152.45 14.33 152.42 13.82Q152.40 13.32 152.40 12.84L152.40 12.84L152.40 0.94L153.86 0.94L153.86 15.84Q154.15 16.01 154.46 16.14Q154.78 16.27 155.14 16.34L155.14 16.34ZM158.95 17.38L158.95 2.23Q158.18 2.11 157.50 1.80Q156.82 1.49 156.34 0.82L156.34 0.82L157.13 0Q157.63 0.48 158.33 0.72Q159.02 0.96 159.98 0.96L159.98 0.96Q161.11 0.96 162.25 0.84Q163.39 0.72 164.90 0.72L164.90 0.72Q166.82 0.72 168.36 1.37Q169.90 2.02 170.98 3.16Q172.06 4.30 172.64 5.83Q173.23 7.37 173.23 9.17L173.23 9.17Q173.23 10.97 172.64 12.52Q172.06 14.06 170.98 15.19Q169.90 16.32 168.36 16.97Q166.82 17.62 164.90 17.62L164.90 17.62Q163.06 17.62 161.89 17.58Q160.73 17.54 160.08 17.50L160.08 17.50Q159.29 17.45 158.95 17.38L158.95 17.38ZM164.90 2.04L164.90 2.04Q163.58 2.04 162.50 2.15Q161.42 2.26 160.42 2.28L160.42 2.28L160.42 16.18Q161.16 16.22 162.25 16.26Q163.34 16.30 164.90 16.30L164.90 16.30Q166.49 16.30 167.76 15.78Q169.03 15.26 169.93 14.32Q170.83 13.37 171.31 12.06Q171.79 10.75 171.79 9.17L171.79 9.17Q171.79 7.58 171.31 6.28Q170.83 4.97 169.93 4.03Q169.03 3.10 167.76 2.57Q166.49 2.04 164.90 2.04ZM188.18 16.01L188.18 17.38L176.95 17.38L176.95 0.96L187.70 0.96L187.70 2.33L178.42 2.33L178.42 8.02L186.02 8.02L186.02 9.38L178.42 9.38L178.42 16.01L188.18 16.01Z" transform="translate(51, 5.692)"></path></svg>