<?xml version="1.0" standalone="no"?>
<svg xmlns="http://www.w3.org/2000/svg" viewBox="0 0 382 53.36" width="382" height="53.36"><rect fill="none" stroke="#295c3c" stroke-width="4" width="378" height="49.36" x="2" y="2"></rect><g fill="#ffffff" color="#ffffff" transform="translate(12 12.001) scale(0.2936)"><svg width="100.0" height="100.0" x="0.0" y="0.0" viewBox="0 0 100 100"><title></title><path d="M52.46,35a.3.3,0,0,1-.27-.3l0-2.76a.27.27,0,0,1,.26-.26c7.36-.35,13.55-3.22,17.57-8.15s5.53-11.74,4-18.91l-.26-1.29a.3.3,0,0,0-.26-.22L72.26,3C65.52,2.7,59.72,4.71,55.47,8.85A23,23,0,0,0,49.4,19.78a.17.17,0,0,1-.31.07,12.16,12.16,0,0,0-2.73-2.77A18.53,18.53,0,0,0,30.88,14.5a.22.22,0,0,0-.16.25C31,16.51,33.32,30.23,48,31.51a.29.29,0,0,1,.25.28l-.05,2.88A.29.29,0,0,1,48,35a31.06,31.06,0,1,0,4.5,0Zm5.77-23.3A17.31,17.31,0,0,1,70.25,7a.27.27,0,0,1,.28.24A17.84,17.84,0,0,1,67,21c-3.24,4-8.33,6.33-14.4,6.68a.24.24,0,0,1-.26-.25C52.54,20.68,54.57,15.26,58.23,11.69ZM47.7,27.46c-5.25-.86-10.39-3.7-12.27-9.52a.22.22,0,0,1,.19-.29,12.29,12.29,0,0,1,8.3,2.54,11.42,11.42,0,0,1,4.14,6.9A.31.31,0,0,1,47.7,27.46ZM50,93A27.14,27.14,0,1,1,77.13,65.9,27.14,27.14,0,0,1,50,93Z"></path><path d="M50,41.72A24.19,24.19,0,1,0,74.18,65.9,24.19,24.19,0,0,0,50,41.72Zm6.15,29.7a4.86,4.86,0,0,1-1.58,1.7,7.76,7.76,0,0,1-2.42.92,4,4,0,0,0-.5.08V75.4c0,.42.2,1.34-1.34,1.34h-1c-1,0-1.46-.34-1.46-1.17V74.31s-1-.1-1.78-.25a3.35,3.35,0,0,1-1.47-.59c-.76-.49-.39-4.25.72-3.58a7.68,7.68,0,0,0,1.28.71,7.91,7.91,0,0,0,2.64.47,6.05,6.05,0,0,0,1.36-.14,2.86,2.86,0,0,0,1-.4,1.54,1.54,0,0,0,.58-.58,1.44,1.44,0,0,0,.2-.74,1.64,1.64,0,0,0-.31-1,3.53,3.53,0,0,0-.84-.78A8.73,8.73,0,0,0,50,66.78c-.48-.22-1-.44-1.57-.68a7.9,7.9,0,0,1-3.21-2.19,4.73,4.73,0,0,1-1.07-3.13,5,5,0,0,1,.56-2.46,4.92,4.92,0,0,1,1.54-1.7,6.32,6.32,0,0,1,1.54-.9c.14,0,.13-.13.13-.17V54c0-.26.25-.61.79-.61h2.25c.45,0,.73.23.73.55v1.29a.16.16,0,0,0,.15.16c.4,0,1.51.08,2,.16a10.08,10.08,0,0,1,2,.44.69.69,0,0,1,.42.6v2.24a.74.74,0,0,1-1,.56l-.19,0a7.79,7.79,0,0,0-1.14-.42,9.68,9.68,0,0,0-1.15-.22,7.26,7.26,0,0,0-1.09-.09,5.67,5.67,0,0,0-1.29.14,2.85,2.85,0,0,0-1,.38,1.93,1.93,0,0,0-.62.58,1.34,1.34,0,0,0-.21.76,1.49,1.49,0,0,0,.24.83,2.51,2.51,0,0,0,.69.69,6.68,6.68,0,0,0,1.09.64c.42.2.91.43,1.45.65a14.46,14.46,0,0,1,2,1,6.39,6.39,0,0,1,1.5,1.17,4.43,4.43,0,0,1,1,1.49,5.11,5.11,0,0,1,.34,2A5.21,5.21,0,0,1,56.15,71.42Z"></path></svg></g><path fill="#ffffff" fill-rule="nonzero" d="M4.36 28.96L4.36 3.72Q3.08 3.52 1.94 3Q0.80 2.48 0 1.36L0 1.36L1.32 0Q2.16 0.80 3.32 1.20Q4.48 1.60 6.08 1.60L6.08 1.60Q7.96 1.60 9.86 1.40Q11.76 1.20 14.28 1.20L14.28 1.20Q17.48 1.20 20.04 2.28Q22.60 3.36 24.40 5.26Q26.20 7.16 27.18 9.72Q28.16 12.28 28.16 15.28L28.16 15.28Q28.16 18.28 27.18 20.86Q26.20 23.44 24.40 25.32Q22.60 27.20 20.04 28.28Q17.48 29.36 14.28 29.36L14.28 29.36Q11.20 29.36 9.26 29.30Q7.32 29.24 6.24 29.16L6.24 29.16Q4.92 29.08 4.36 28.96L4.36 28.96ZM14.28 3.40L14.28 3.40Q12.08 3.40 10.28 3.58Q8.48 3.76 6.80 3.80L6.80 3.80L6.80 26.96Q8.04 27.04 9.86 27.10Q11.68 27.16 14.28 27.16L14.28 27.16Q16.92 27.16 19.04 26.30Q21.16 25.44 22.66 23.86Q24.16 22.28 24.96 20.10Q25.76 17.92 25.76 15.28L25.76 15.28Q25.76 12.64 24.96 10.46Q24.16 8.28 22.66 6.72Q21.16 5.16 19.04 4.28Q16.92 3.40 14.28 3.40ZM34.16 1.60L36.60 1.60L36.60 18.28Q36.60 20.36 37.20 22Q37.80 23.64 38.88 24.78Q39.96 25.92 41.48 26.54Q43 27.16 44.84 27.16L44.84 27.16Q46.68 27.16 48.22 26.54Q49.76 25.92 50.84 24.78Q51.92 23.64 52.52 22Q53.12 20.36 53.12 18.28L53.12 18.28L53.12 1.60L55.56 1.60L55.56 18.28Q55.56 20.76 54.80 22.78Q54.04 24.80 52.62 26.28Q51.20 27.76 49.24 28.56Q47.28 29.36 44.88 29.36L44.88 29.36Q42.44 29.36 40.46 28.56Q38.48 27.76 37.08 26.28Q35.68 24.80 34.92 22.78Q34.16 20.76 34.16 18.28L34.16 18.28L34.16 1.60ZM78.48 26.68L78.48 28.96L62.96 28.96L62.96 1.60L65.40 1.60L65.40 26.68L78.48 26.68ZM82.92 15.28L80.48 15.28Q80.48 12.28 81.44 9.72Q82.40 7.16 84.12 5.26Q85.84 3.36 88.26 2.28Q90.68 1.20 93.60 1.20L93.60 1.20Q97.92 1.20 100.08 2.72Q102.24 4.24 102.24 6.76L102.24 6.76Q102.24 7.88 101.76 8.82Q101.28 9.76 100.22 10.46Q99.16 11.16 97.52 11.54Q95.88 11.92 93.60 11.92L93.60 11.92L83.28 11.92Q82.92 13.48 82.92 15.28L82.92 15.28ZM93.60 3.40L93.60 3.40Q90.20 3.40 87.70 5.12Q85.20 6.84 83.92 9.84L83.92 9.84L93.60 9.84Q95.40 9.84 96.58 9.64Q97.76 9.44 98.46 9.04Q99.16 8.64 99.44 8.06Q99.72 7.48 99.72 6.76L99.72 6.76Q99.72 5.08 98.16 4.24Q96.60 3.40 93.60 3.40ZM92 29.36L92 29.36Q89.04 29.36 86.86 28.28Q84.68 27.20 83.26 25.30Q81.84 23.40 81.16 20.82Q80.48 18.24 80.48 15.28L80.48 15.28L82.92 15.28Q82.92 17.92 83.50 20.10Q84.08 22.28 85.22 23.84Q86.36 25.40 88.06 26.28Q89.76 27.16 92 27.16L92 27.16Q93.24 27.16 94.58 26.82Q95.92 26.48 97.14 26Q98.36 25.52 99.36 24.98Q100.36 24.44 101 24.04L101 24.04L102.04 25.84Q101.44 26.32 100.42 26.94Q99.40 27.56 98.08 28.10Q96.76 28.64 95.22 29Q93.68 29.36 92 29.36ZM126.36 26.68L126.36 28.96L107.64 28.96L107.64 1.60L125.56 1.60L125.56 3.88L110.08 3.88L110.08 13.36L122.76 13.36L122.76 15.64L110.08 15.64L110.08 26.68L126.36 26.68ZM148.96 18.96L148.36 20.76Q146.92 20.48 145.72 19.90Q144.52 19.32 143.52 18.62Q142.52 17.92 141.72 17.14Q140.92 16.36 140.32 15.64L140.32 15.64L136.40 10.80Q135.72 10 134.94 8.88Q134.16 7.76 133.48 6.68L133.48 6.68Q133.60 7.68 133.70 8.78Q133.80 9.88 133.80 10.80L133.80 10.80L133.80 28.96L131.36 28.96L131.36 1.24L132.12 1.24L142.76 14.80Q143.04 15.24 143.60 15.76L143.60 15.76L155.56 1.24L156.32 1.24L156.32 28.96L153.88 28.96L153.88 10.80Q153.88 9.80 153.98 8.54Q154.08 7.28 154.20 6.24L154.20 6.24Q153.36 7.40 152.44 8.66Q151.52 9.92 150.76 10.80L150.76 10.80L145.32 17.24Q146.12 17.80 147.02 18.26Q147.92 18.72 148.96 18.96L148.96 18.96ZM172.60 3.40L172.60 3.40Q171.32 3.40 170.56 3.46Q169.80 3.52 169.26 3.58Q168.72 3.64 168.24 3.72Q167.76 3.80 167.12 3.80L167.12 3.80L167.12 28.96L164.68 28.96L164.68 3.72Q163.40 3.52 162.26 3Q161.12 2.48 160.32 1.36L160.32 1.36L161.64 0Q162.48 0.80 163.64 1.20Q164.80 1.60 166.40 1.60L166.40 1.60Q167.32 1.60 167.96 1.54Q168.60 1.48 169.24 1.40Q169.88 1.32 170.66 1.26Q171.44 1.20 172.72 1.20L172.72 1.20Q174.60 1.20 176.14 1.86Q177.68 2.52 178.76 3.70Q179.84 4.88 180.44 6.46Q181.04 8.04 181.04 9.88L181.04 9.88Q181.04 11.76 180.44 13.34Q179.84 14.92 178.76 16.10Q177.68 17.28 176.14 17.94Q174.60 18.60 172.72 18.60L172.72 18.60Q171.96 18.60 171.32 18.60Q170.68 18.60 170.20 18.56L170.20 18.56Q169.64 18.56 169.16 18.52L169.16 18.52L169.16 16.32Q169.64 16.36 170.20 16.36L170.20 16.36Q170.68 16.40 171.30 16.40Q171.92 16.40 172.60 16.40L172.60 16.40Q173.96 16.40 175.08 15.92Q176.20 15.44 177 14.58Q177.80 13.72 178.24 12.52Q178.68 11.32 178.68 9.88L178.68 9.88Q178.68 8.44 178.24 7.26Q177.80 6.08 177 5.22Q176.20 4.36 175.08 3.88Q173.96 3.40 172.60 3.40ZM205.28 28.96L202.64 28.96L199.84 21.84Q199.40 20.72 198.84 19.84Q198.28 18.96 197.50 18.34Q196.72 17.72 195.68 17.40Q194.64 17.08 193.28 17.08L193.28 17.08L189.44 17.08L189.44 28.96L187 28.96L187 3.72Q185.72 3.52 184.58 3Q183.44 2.48 182.64 1.36L182.64 1.36L183.96 0Q184.80 0.80 185.96 1.20Q187.12 1.60 188.72 1.60L188.72 1.60Q189.64 1.60 190.28 1.54Q190.92 1.48 191.56 1.40Q192.20 1.32 192.98 1.26Q193.76 1.20 195.04 1.20L195.04 1.20Q196.84 1.20 198.32 1.80Q199.80 2.40 200.86 3.46Q201.92 4.52 202.52 5.96Q203.12 7.40 203.12 9.12L203.12 9.12Q203.12 11.88 201.76 13.66Q200.40 15.44 198.08 16.16L198.08 16.16Q199.40 16.76 200.22 17.80Q201.04 18.84 201.68 20.32L201.68 20.32L205.28 28.96ZM194.92 3.40L194.92 3.40Q193.64 3.40 192.88 3.46Q192.12 3.52 191.58 3.58Q191.04 3.64 190.56 3.72Q190.08 3.80 189.44 3.80L189.44 3.80L189.44 14.88L195 14.88Q196.24 14.88 197.30 14.48Q198.36 14.08 199.12 13.34Q199.88 12.60 200.30 11.52Q200.72 10.44 200.72 9.12L200.72 9.12Q200.72 6.48 199.14 4.94Q197.56 3.40 194.92 3.40ZM228.60 26.68L228.60 28.96L209.88 28.96L209.88 1.60L227.80 1.60L227.80 3.88L212.32 3.88L212.32 13.36L225 13.36L225 15.64L212.32 15.64L212.32 26.68L228.60 26.68ZM258.56 27.24L257.96 29.04Q256.52 28.76 255.40 28.20Q254.28 27.64 253.36 26.96Q252.44 26.28 251.70 25.52Q250.96 24.76 250.36 24.04L250.36 24.04L238.92 10.76Q238.20 9.96 237.36 8.80Q236.52 7.64 235.76 6.52L235.76 6.52Q235.84 7.56 235.94 8.70Q236.04 9.84 236.04 10.76L236.04 10.76L236.04 28.96L233.60 28.96L233.60 1.20L234.36 1.20L252.80 23.20Q253.08 23.52 253.40 23.90Q253.72 24.28 254.16 24.68L254.16 24.68Q254.08 23.88 254.04 23.04Q254.00 22.20 254.00 21.40L254.00 21.40L254.00 1.56L256.44 1.56L256.44 26.40Q256.92 26.68 257.44 26.90Q257.96 27.12 258.56 27.24L258.56 27.24ZM264.92 28.96L264.92 3.72Q263.64 3.52 262.50 3Q261.36 2.48 260.56 1.36L260.56 1.36L261.88 0Q262.72 0.80 263.88 1.20Q265.04 1.60 266.64 1.60L266.64 1.60Q268.52 1.60 270.42 1.40Q272.32 1.20 274.84 1.20L274.84 1.20Q278.04 1.20 280.60 2.28Q283.16 3.36 284.96 5.26Q286.76 7.16 287.74 9.72Q288.72 12.28 288.72 15.28L288.72 15.28Q288.72 18.28 287.74 20.86Q286.76 23.44 284.96 25.32Q283.16 27.20 280.60 28.28Q278.04 29.36 274.84 29.36L274.84 29.36Q271.76 29.36 269.82 29.30Q267.88 29.24 266.80 29.16L266.80 29.16Q265.48 29.08 264.92 28.96L264.92 28.96ZM274.84 3.40L274.84 3.40Q272.64 3.40 270.84 3.58Q269.04 3.76 267.36 3.80L267.36 3.80L267.36 26.96Q268.60 27.04 270.42 27.10Q272.24 27.16 274.84 27.16L274.84 27.16Q277.48 27.16 279.60 26.30Q281.72 25.44 283.22 23.86Q284.72 22.28 285.52 20.10Q286.32 17.92 286.32 15.28L286.32 15.28Q286.32 12.64 285.52 10.46Q284.72 8.28 283.22 6.72Q281.72 5.16 279.60 4.28Q277.48 3.40 274.84 3.40ZM313.64 26.68L313.64 28.96L294.92 28.96L294.92 1.60L312.84 1.60L312.84 3.88L297.36 3.88L297.36 13.36L310.04 13.36L310.04 15.64L297.36 15.64L297.36 26.68L313.64 26.68Z" transform="translate(56.36 12) scale(1)"></path></svg>