<?xml version="1.0" standalone="no"?><svg xmlns="http://www.w3.org/2000/svg" viewBox="0 0 1440 320"><path fill="#00cba9" fill-opacity="1" d="M0,32L26.7,32C53.3,32,107,32,160,64C213.3,96,267,160,320,154.7C373.3,149,427,75,480,53.3C533.3,32,587,64,640,69.3C693.3,75,747,53,800,64C853.3,75,907,117,960,149.3C1013.3,181,1067,203,1120,224C1173.3,245,1227,267,1280,277.3C1333.3,288,1387,288,1413,288L1440,288L1440,0L1413.3,0C1386.7,0,1333,0,1280,0C1226.7,0,1173,0,1120,0C1066.7,0,1013,0,960,0C906.7,0,853,0,800,0C746.7,0,693,0,640,0C586.7,0,533,0,480,0C426.7,0,373,0,320,0C266.7,0,213,0,160,0C106.7,0,53,0,27,0L0,0Z"></path></svg>