<svg height="512" viewBox="0 0 128 128" width="512" xmlns="http://www.w3.org/2000/svg"><g><path d="m11.483 36.805c1.059.58 1.7.93 2.057 2.078a3.361 3.361 0 0 1 -.5 2.884 6.612 6.612 0 0 0 3 9.591c1.06.583 1.7.936 2.059 2.086a3.351 3.351 0 0 1 -.5 2.878 6.747 6.747 0 0 0 -.708 5.491 1.75 1.75 0 0 0 2.709.887l12.512-9.289a7.73 7.73 0 0 0 8.634 2.916l.847-.265 2.311-.725 10.208-3.2 2.031-.637 10.5-3.288 1.122-.351 11.713-3.67a7.76 7.76 0 0 0 5.43-7.316l15.564.486h.054a1.75 1.75 0 0 0 1.67-2.273 6.751 6.751 0 0 0 -3.711-4.106c-1.059-.583-1.7-.935-2.059-2.084a3.353 3.353 0 0 1 .5-2.882 6.607 6.607 0 0 0 -3-9.589c-1.059-.581-1.7-.932-2.057-2.079a3.347 3.347 0 0 1 .506-2.881 6.729 6.729 0 0 0 .714-5.488 1.75 1.75 0 0 0 -2.712-.879l-12.506 9.279a7.763 7.763 0 0 0 -8.642-2.922l-16.106 5.043-3.113.976-6.688 2.095-5.842 1.829-6.98 2.191a7.734 7.734 0 0 0 -5.432 7.326l-15.573-.486a1.725 1.725 0 0 0 -1.448.69 1.75 1.75 0 0 0 -.276 1.579 6.734 6.734 0 0 0 3.712 4.105zm30.829-13.248 2.722 27.755-2.429.761-2.72-27.756 2.335-.731zm25.344 20.669-2.714-27.758 2.429-.761 2.714 27.758-1.461.458zm-3.412 1.074-3.269 1.024-2.722-27.761 3.278-1.027zm-11.831-24.9 2.429-.761 2.721 27.755-2.436.763zm-.7 28.827-3.269 1.024-2.72-27.763 3.276-1.027zm36.817-33.834a6.731 6.731 0 0 0 3.713 4.1c1.059.581 1.7.932 2.057 2.079a3.357 3.357 0 0 1 -.5 2.884 6.738 6.738 0 0 0 -.708 5.486 6.361 6.361 0 0 0 3.138 3.782l-12.02-.375-4.91-15.671 9.646-7.161a6.333 6.333 0 0 0 -.416 4.876zm-16.987-.793a4.258 4.258 0 0 1 4.057 2.981l5.62 17.937v.008a4.257 4.257 0 0 1 -2.786 5.324l-4.934 1.55-2.712-27.722a4.312 4.312 0 0 1 .755-.078zm-42.5 14.415a4.219 4.219 0 0 1 2.5-2.087l4.931-1.545 2.716 27.7a4.242 4.242 0 0 1 -4.814-2.883l-5.616-17.931-.005-.019a4.226 4.226 0 0 1 .289-3.232zm-3.271 5.425 4.909 15.671-9.659 7.171a6.336 6.336 0 0 0 .417-4.885 6.745 6.745 0 0 0 -3.71-4.1c-1.06-.583-1.7-.936-2.059-2.084a3.363 3.363 0 0 1 .5-2.885 6.736 6.736 0 0 0 .708-5.485 6.338 6.338 0 0 0 -3.125-3.773z"/><path d="m117.538 63.445a21.776 21.776 0 0 0 -26.9-4 4.724 4.724 0 0 0 -6.721 6.175 21.783 21.783 0 0 0 -1.075 23.28l-29.242 26.892a1.751 1.751 0 0 0 -.1 2.472l4.06 4.42a1.751 1.751 0 0 0 1.216.564h.073a1.747 1.747 0 0 0 1.184-.462l29.243-26.904a21.741 21.741 0 0 0 23.284.878 4.7 4.7 0 0 0 2.312.735h.2a4.721 4.721 0 0 0 4.2-6.929 21.766 21.766 0 0 0 -1.734-27.121zm-2.576 2.369a18.257 18.257 0 0 1 1.98 21.954l-23.703-25.768a18.268 18.268 0 0 1 21.723 3.814zm-56.018 53.212-1.692-1.841 27.6-25.38c.263.322.528.644.809.95s.582.6.88.886zm31.293-26.778a17.555 17.555 0 0 1 -2-1.863 17.97 17.97 0 0 1 -1.7-2.156 18.241 18.241 0 0 1 -.289-19.8l23.7 25.768a18.265 18.265 0 0 1 -19.711-1.949zm25.678 1.422a1.215 1.215 0 0 1 -.9.328 1.242 1.242 0 0 1 -.868-.4l-.212-.232-.006-.006-26.729-29.06a1.25 1.25 0 0 1 .919-2.1h.054a1.239 1.239 0 0 1 .867.4l.2.218.023.025 26.505 28.816.218.237a1.252 1.252 0 0 1 -.075 1.767z"/><path d="m61.036 76.958 12.526-6.253a1.751 1.751 0 0 0 .5-2.758 5.21 5.21 0 0 0 -3.246-1.647 1.782 1.782 0 0 1 -1.278-.58 1.812 1.812 0 0 1 -.491-1.335 5.282 5.282 0 0 0 -4.647-5.019 1.839 1.839 0 0 1 -1.766-1.912 5.176 5.176 0 0 0 -1.4-3.352 1.73 1.73 0 0 0 -1.465-.552 1.747 1.747 0 0 0 -1.321.841l-7.191 12c-6.87-1.6-15.933 1.251-23.239 8.017s-10.843 15.592-9.775 22.562l-12.524 6.244a1.75 1.75 0 0 0 -.5 2.755 5.184 5.184 0 0 0 3.244 1.655 1.768 1.768 0 0 1 1.275.584 1.789 1.789 0 0 1 .49 1.323 5.29 5.29 0 0 0 4.644 5.017 1.8 1.8 0 0 1 1.287.591 1.781 1.781 0 0 1 .489 1.322 5.208 5.208 0 0 0 1.4 3.357 1.751 1.751 0 0 0 1.285.562 1.581 1.581 0 0 0 .181-.01 1.749 1.749 0 0 0 1.321-.842l7.178-12a17.227 17.227 0 0 0 3.919.448c6.174 0 13.344-2.928 19.33-8.47 7.302-6.761 10.838-15.576 9.774-22.548zm-37.025 24.522-.011-.011c-.685-1.357 3.177-8.791 12.736-17.644 9.378-8.683 16.078-11.477 18.064-11.477a.963.963 0 0 1 .466.09l.013.013c.683 1.36-3.179 8.793-12.737 17.644-10.368 9.605-17.468 12.005-18.531 11.385zm35.478-42.016a5.118 5.118 0 0 0 1.066 1.694 5.178 5.178 0 0 0 3.245 1.656 1.83 1.83 0 0 1 1.767 1.909 5.246 5.246 0 0 0 1.406 3.37 5.1 5.1 0 0 0 1.611 1.188l-8.514 4.251a11.563 11.563 0 0 0 -5.47-5.906zm-29.089 17.515c5.347-4.951 11.668-7.613 16.915-7.613a13.172 13.172 0 0 1 3.505.452c-5.371 2.1-12.11 7.412-16.46 11.439a69.48 69.48 0 0 0 -11.066 12.726 26.733 26.733 0 0 0 -1.584 2.827c-1.148-5.826 2.069-13.703 8.69-19.831zm-10.612 37.477a5.115 5.115 0 0 0 -1.066-1.7 5.229 5.229 0 0 0 -3.241-1.656 1.843 1.843 0 0 1 -1.775-1.914 5.2 5.2 0 0 0 -1.4-3.357 5.061 5.061 0 0 0 -1.605-1.189l8.516-4.246a11.719 11.719 0 0 0 5.447 5.912zm29.094-17.516c-6.612 6.122-14.7 8.728-20.422 7.146a27.521 27.521 0 0 0 2.922-1.368 69.5 69.5 0 0 0 13.538-10.055 69.493 69.493 0 0 0 11.064-12.726 26.841 26.841 0 0 0 1.584-2.828c1.149 5.826-2.068 13.703-8.686 19.831z"/></g></svg>