<svg height="512" viewBox="0 0 60 60" width="512" xmlns="http://www.w3.org/2000/svg"><g id="Page-1" fill="none" fill-rule="evenodd"><g id="011---Sweet" transform="translate(-1 -1)"><g fill-rule="nonzero"><path id="Shape" d="m45.48 37.74-3.57 3.57c1.2551873-4.745271 1.6146624-9.6829679 1.06-14.56-.5155938-4.3209582-1.7492309-8.5254638-3.65-12.44.9976191.5574989 1.9130214 1.2507816 2.72 2.06l3.44 3.44c1.3384107 1.3269951 2.3574492 2.9410425 2.98 4.72 1.6410613 4.609332.4810271 9.7516312-2.98 13.21z" fill="#a4c400"/><path id="Shape" d="m48.46 24.53c-.6225508-1.7789575-1.6415893-3.3930049-2.98-4.72l-3.44-3.44c-.8069786-.8092184-1.7223809-1.5025011-2.72-2.06.6306336 1.3051203 1.1884882 2.6441715 1.671 4.011l1.489 1.489c1.3384107 1.3269951 2.3574492 2.9410425 2.98 4.72 1.5964044 4.4914152.5355682 9.4987939-2.745 12.957-.207 1.285-.472 2.562-.805 3.823l3.57-3.57c3.4610271-3.4583688 4.6210613-8.600668 2.98-13.21z" fill="#90ac00"/><path id="Shape" d="m41.91 41.31v.01l-4.15 4.14c-1.9848416 1.9978951-4.584424 3.2695065-7.38 3.61 2.38-5.34 4.44-10.82 4.85-16.62.3007742-6.8125444-1.2509253-13.5791983-4.49-19.58 2.2611018-.4195777 4.5936188-.219154 6.75.58.6336493.2333804 1.2459302.521119 1.83.86 1.9007691 3.9145362 3.1344062 8.1190418 3.65 12.44.5546624 4.8770321.1951873 9.814729-1.06 14.56z" fill="#ffeb3a"/><path id="Shape" d="m42.97 26.75c-.5155938-4.3209582-1.7492309-8.5254638-3.65-12.44-.5840698-.338881-1.1963507-.6266196-1.83-.86-1.9001848-.7029979-3.9405633-.9429617-5.952-.7 1.0083462.1150508 1.9993557.3500463 2.952.7.6336493.2333804 1.2459302.521119 1.83.86 1.9007691 3.9145362 3.1344062 8.1190418 3.65 12.44.5546624 4.8770321.1951873 9.814729-1.06 14.56v.01l-4.15 4.14c-1.1417654 1.1418076-2.4922336 2.0536622-3.978 2.686-.134.308-.265.617-.4.924 2.795576-.3404935 5.3951584-1.6121049 7.38-3.61l4.15-4.14v-.01c1.2545173-4.7453969 1.6133141-9.683092 1.058-14.56z" fill="#fdd834"/><path id="Shape" d="m35.23 32.45c-.41 5.8-2.47 11.28-4.85 16.62-1.9691258.2518808-3.9698969.0360442-5.84-.63-1.1073417-.3846954-2.1519088-.9305659-3.1-1.62v-.01c.4255433-2.138591.9697172-4.2518554 1.63-6.33 1.4556046-4.7303335 2.2399251-9.6415936 2.33-14.59.0165886-3.189754-.455554-6.3632267-1.4-9.41l.11-.11c1.8062098-1.8089309 4.1174651-3.0290506 6.63-3.5 3.2390747 6.0008017 4.7907742 12.7674556 4.49 19.58z" fill="#a4c400"/><path id="Shape" d="m30.74 12.87c-.8998032.1720015-1.7785154.4402083-2.621.8 2.9893684 5.7926687 4.406878 12.2681807 4.111 18.78-.41 5.8-2.47 11.28-4.85 16.62-.031 0-.061 0-.092.006 1.0270309.1245034 2.0654601.1224884 3.092-.006 2.38-5.34 4.44-10.82 4.85-16.62.3007742-6.8125444-1.2509253-13.5791983-4.49-19.58z" fill="#90ac00"/><path id="Shape" d="m25.4 25.89c-.0900749 4.9484064-.8743954 9.8596665-2.33 14.59-.6602828 2.0781446-1.2044567 4.191409-1.63 6.33v.01c-.5772213-.4030222-1.1161572-.8582724-1.61-1.36l-3.44-3.44c-.2432919-.2409398-.4736163-.4946304-.69-.76.38-3.9 1.09-7.78 1.53-11.67.2633381-2.2267452.3869134-4.4678013.37-6.71l6.4-6.4c.944446 3.0467733 1.4165886 6.220246 1.4 9.41z" fill="#ffeb3a"/><path id="Shape" d="m24 16.48-2.365 2.364c.5141907 2.3132469.7707528 4.6763016.765 7.046-.0900749 4.9484064-.8743954 9.8596665-2.33 14.59-.388 1.358-.8 2.713-1.141 4.079l.9.9c.4938428.5017276 1.0327787.9569778 1.61 1.36v-.01c.4255433-2.138591.9697172-4.2518554 1.63-6.33 1.4558512-4.7299639 2.2405074-9.640882 2.331-14.589.0165886-3.189754-.455554-6.3632267-1.4-9.41z" fill="#fdd834"/><path id="Shape" d="m17.6 22.88c.0169134 2.2421987-.1066619 4.4832548-.37 6.71-.44 3.89-1.15 7.77-1.53 11.67-.9564067-1.1197339-1.7079089-2.3993189-2.22-3.78-1.7359183-4.6480708-.5985164-9.8816831 2.91-13.39z" fill="#a4c400"/><path id="Shape" d="m24.54 48.44v.01c-1.0149285 3.8607431-2.9267559 7.4274318-5.58 10.41 0 0-2.13 2.14-3.72.56s.03-3.19-1.56-4.77-3.19.01-4.77-1.57.02-3.18-1.56-4.76-3.19.02-4.77-1.56.56-3.72.56-3.72c2.96140588-2.6352924 6.49940814-4.5395801 10.33-5.56h.01c.5120911 1.3806811 1.2635933 2.6602661 2.22 3.78.2163837.2653696.4467081.5190602.69.76l3.44 3.44c.4938428.5017276 1.0327787.9569778 1.61 1.36.9480912.6894341 1.9926583 1.2353046 3.1 1.62z" fill="#60a917"/><path id="Shape" d="m21.44 46.82c-.5772213-.4030222-1.1161572-.8582724-1.61-1.36l-3.44-3.44c-.2432919-.2409398-.4736163-.4946304-.69-.76-.9564067-1.1197339-1.7079089-2.3993189-2.22-3.78h-.01c-.934.266-1.8.568-2.617.888.4805058 1.0439345 1.1019673 2.0170079 1.847 2.892.2163837.2653696.4467081.5190602.69.76l3.44 3.44c.4938428.5017276 1.0327787.9569778 1.61 1.36.9480912.6894341 1.9926583 1.2353046 3.1 1.62v.01c-1.0149285 3.8607431-2.9267559 7.4274318-5.58 10.41-.2205831.2097685-.4599162.3988918-.715.565 1.59 1.57 3.715-.565 3.715-.565 2.6532441-2.9825682 4.5650715-6.5492569 5.58-10.41v-.01c-1.1073417-.3846954-2.1519088-.9305659-3.1-1.62z" fill="#549414"/><path id="Shape" d="m58.86 18.96c-2.9791374 2.6450076-6.5381249 4.5529538-10.39 5.57h-.01c-.6225508-1.7789575-1.6415893-3.3930049-2.98-4.72l-3.44-3.44c-.8069786-.8092184-1.7223809-1.5025011-2.72-2.06-.5840698-.338881-1.1963507-.6266196-1.83-.86 1.0225504-3.82170728 2.9229565-7.35201112 5.55-10.31 0 0 2.13-2.14 3.72-.56s-.03 3.19 1.56 4.77 3.18-.02 4.76 1.56-.02 3.18 1.57 4.77 3.19-.02 4.77 1.56-.56 3.72-.56 3.72z" fill="#60a917"/><path id="Shape" d="m59.42 15.24c-1.58-1.58-3.19.03-4.77-1.56s.01-3.19-1.57-4.77-3.18.02-4.76-1.56.02-3.19-1.56-4.77c-.857423-.75329241-2.1400707-.75543016-3-.005v.005c1.58 1.58-.03 3.19 1.56 4.77s3.18-.02 4.76 1.56-.02 3.18 1.57 4.77 3.19-.02 4.77 1.56-.56 3.72-.56 3.72c-2.2695379 2.0353253-4.9020825 3.6250294-7.76 4.686.128.293.26.584.364.884h.01c3.8518751-1.0170462 7.4108626-2.9249924 10.39-5.57 0 0 2.136-2.13.556-3.72z" fill="#549414"/></g><path id="Shape" d="m9.551 45.175 2.85-1.425" stroke="#000" stroke-linecap="round" stroke-linejoin="round" stroke-width="2"/><path id="Shape" d="m16.676 52.299 1.425-2.85" stroke="#000" stroke-linecap="round" stroke-linejoin="round" stroke-width="2"/><path id="Shape" d="m15.251 46.6-2.85 2.849" stroke="#000" stroke-linecap="round" stroke-linejoin="round" stroke-width="2"/><path id="Shape" d="m45.175 9.551-1.425 2.85" stroke="#000" stroke-linecap="round" stroke-linejoin="round" stroke-width="2"/><path id="Shape" d="m52.299 16.676-2.85 1.425" stroke="#000" stroke-linecap="round" stroke-linejoin="round" stroke-width="2"/><path id="Shape" d="m46.6 15.251 2.849-2.85" stroke="#000" stroke-linecap="round" stroke-linejoin="round" stroke-width="2"/><path id="Shape" d="m24 16.48v-.01" stroke="#000" stroke-linecap="round" stroke-linejoin="round" stroke-width="2"/><path id="Shape" d="m30.38 49.07-.01.01" stroke="#000" stroke-linecap="round" stroke-linejoin="round" stroke-width="2"/><path id="Shape" d="m57.027 13.464c-.8 0-1.2-.013-1.67-.487s-.5-.884-.493-1.68c.134515-1.141841-.261637-2.28235957-1.0750137-3.09495628s-1.9542749-1.20765424-3.0959863-1.07204372c-.8 0-1.2-.013-1.67-.487s-.492-.877-.487-1.67c.1197843-1.14132831-.2732831-2.27693776-1.073-3.1-1.811-1.812-4.15-.429-5.133.556-2.5227867 2.81166593-4.3999949 6.14115068-5.5 9.755-1.2223579-.3501363-2.4874844-.5285128-3.759-.53-.8021387.0033265-1.6024753.0762668-2.392.218l-.033.005c-2.7471548.4875793-5.2773072 1.8099209-7.246 3.787l-6.512 6.511-.015.015-1.19 1.19c-3.5116417 3.5181983-4.8395855 8.663837-3.469 13.442-3.62380426 1.0995492-6.96273569 2.9796182-9.782 5.508-.984.984-2.367 3.323-.556 5.133.82298761.7998381 1.95865546 1.1929257 3.1 1.073.8 0 1.2.013 1.67.487s.492.877.487 1.67c-.13561052 1.1417114.25944701 2.2826096 1.07204372 3.0959863s1.95311528 1.2095287 3.09495628 1.0750137c.8 0 1.2.015 1.68.493s.492.877.487 1.67c-.1197843 1.1413283.2732831 2.2769378 1.073 3.1.5284883.5620833 1.2654841.8811949 2.037.882 1.1755364-.0797549 2.2798879-.5920315 3.1-1.438 2.552291-2.8472137 4.4443396-6.2229205 5.541-9.886 1.6758386.4686005 3.4279814.6001387 5.155.387h.008c.015 0 .028-.008.043-.008 3.0466181-.352839 5.884531-1.7251019 8.053-3.894l7.717-7.716c3.4577218-3.4714399 4.7950207-8.5269332 3.506-13.254 3.6553409-1.0933092 7.0241945-2.9802223 9.866-5.526.984-.984 2.367-3.323.556-5.133-.821632-.7990335-1.9548276-1.1933636-3.095-1.077zm-32.627 12.427c-.0860772 4.8573862-.860451 9.6780314-2.3 14.318l-.337 1.162c-.345 1.177-.694 2.385-.979 3.612-.083-.079-.172-.147-.253-.229l-3.431-3.441c-.124-.125-.232-.259-.349-.387.206-1.98.488-3.985.768-5.93.249-1.73.507-3.519.707-5.288.2526834-2.1266004.3775743-4.2664433.374-6.408l4.9-4.9c.6065081 2.450562.9087851 4.9665141.9 7.491zm-7.847-.5c-.053 1.3-.155 2.644-.321 4.091-.2 1.739-.451 3.512-.7 5.227-.179 1.242-.355 2.51-.518 3.784-2.2317583-4.2679282-1.620171-9.467413 1.541-13.101zm1.7 32.759c-.06.058-1.459 1.41-2.308.559-.474-.474-.493-.877-.488-1.669.1354037-1.1439859-.2609336-2.2869329-1.0755003-3.1014997-.8145668-.8145667-1.9575138-1.210904-3.1014997-1.0755003-.794.007-1.2-.014-1.669-.488s-.493-.876-.488-1.669c.11948227-1.141109-.27313043-2.276463-1.072-3.1-.82294069-.7998383-1.95876148-1.1926125-3.1-1.072-.792 0-1.2-.014-1.669-.488-.853-.853.5-2.249.556-2.3 2.62599713-2.315281 5.7208003-4.0364732 9.073-5.046.518731 1.1507548 1.195599 2.2234443 2.011 3.187.007.009.015.016.022.024.236.278.475.554.738.817l3.442 3.441c.5348471.5284524 1.1124824 1.0117663 1.727 1.445.026.018.048.039.076.055.751949.5308193 1.5561166.9834987 2.4 1.351-1.0157373 3.371567-2.74408 6.4855166-5.068 9.131zm4.286-11.8c.292-1.483.72-2.973 1.144-4.42l.341-1.174c1.4917394-4.8178721 2.2917261-9.8231758 2.376-14.866.0107546-3.0786588-.4189305-6.1430273-1.276-9.1 1.425699-1.3336688 3.1657111-2.2848616 5.058-2.765 2.9537198 5.6498513 4.3511784 11.9838002 4.049 18.352-.4 5.652-2.481 11.1-4.532 15.746-2.5131689.1972087-5.0227194-.4236894-7.154-1.77zm14.511-1.6c-1.384783 1.3884233-3.0987838 2.4033375-4.982 2.95 2.216088-4.7960833 3.6221316-9.9262335 4.161-15.182.3228119-6.5123012-1.05175-12.9967599-3.989-18.818.276-.019.552-.04.832-.04 1.9083959-.0038788 3.788393.4621709 5.474 1.357 1.7868323 3.7358389 2.9447305 7.7410111 3.427 11.854.5409293 4.6665136.2110084 9.3928942-.973 13.939zm7.717-7.716-1.155 1.166c.677632-3.8165853.794531-7.7116462.347-11.562-.3657833-3.1180069-1.1019781-6.1812888-2.193-9.125l3.007 3.008c4.5534829 4.5641728 4.5534829 11.9528272 0 16.517zm13.388-18.78c-2.6403495 2.319702-5.7495953 4.0431573-9.116 5.053-.6789528-1.5664175-1.6464333-2.9911784-2.852-4.2l-3.442-3.441c-1.1663003-1.1639606-2.5336816-2.1071691-4.036-2.784 1.0163277-3.33379311 2.731798-6.41257124 5.032-9.031.059-.058 1.456-1.411 2.308-.559.474.474.493.877.488 1.669-.1194823 1.14110904.2731304 2.27646295 1.072 3.1.8227911.80008122 1.9587291 1.19289592 3.1 1.072.792 0 1.2.013 1.669.488s.493.876.488 1.669c-.1354037 1.1439859.2609336 2.2869329 1.0755003 3.1014997.8145668.8145667 1.9575138 1.210904 3.1014997 1.0755003.79 0 1.194.014 1.669.488.851.845-.503 2.245-.557 2.299z" fill="#000" fill-rule="nonzero"/><path id="Shape" d="m13.3 43.3c-.2470582-.493527-.8472372-.6935867-1.341-.447l-2.859 1.427c-.31957407.1607695-.52910317.4798174-.54965972.8369614-.02055655.3571441.15098248.6981255.45.8945s.68008565.2183081.99965972.0575386l2.849-1.425c.2384976-.1179275.4201681-.3260358.5048102-.5782731.0846422-.2522374.065277-.5278063-.0538102-.7657269z" fill="#000" fill-rule="nonzero"/><path id="Shape" d="m18.548 48.555c-.4934774-.2475491-1.0942015-.0483522-1.342.445l-1.425 2.85c-.1186659.2373497-.1381283.5121326-.0541012.7638386.084027.251706.2646527.4596935.5021012.5781614.4937628.2465867 1.0939418.046527 1.341-.447l1.43-2.845c.1193347-.2381448.1387255-.5140589.0538722-.7665537-.0848532-.2524948-.2669374-.4607014-.5058722-.5784463z" fill="#000" fill-rule="nonzero"/><path id="Shape" d="m15.958 45.893c-.3904999-.3903819-1.0235001-.3903819-1.414 0l-2.85 2.849c-.2599566.2510745-.3642126.6228779-.2726972.9725073.0915155.3496295.3645604.6226744.7141899.7141899.3496294.0915154.7214328-.0127406.9725073-.2726972l2.85-2.849c.3903819-.3904999.3903819-1.0235001 0-1.414z" fill="#000" fill-rule="nonzero"/><path id="Shape" d="m45.622 8.657c-.4929448-.247837-1.0934763-.04959893-1.342.443l-1.425 2.85c-.1630317.319984-.1419628.7028178.055198 1.0029789.1971608.3001612.5401342.471552.8985495.4490237.3584154-.0225284.6772285-.2355161.8352525-.5580026l1.425-2.844c.1190537-.23732888.1388355-.51226178.0549845-.76418993-.083851-.25192816-.2644501-.46016687-.5019845-.57881007z" fill="#000" fill-rule="nonzero"/><path id="Shape" d="m51.852 15.781-2.852 1.425c-.3204672.1607695-.5308217.4802939-.5518248.8382114-.0210031.3579176.1505359.699852.45.897s.6813576.2195581 1.0018248.0587886l2.851-1.425c.4940187-.2485281.6930281-.8504813.4445-1.3445s-.8504813-.6930281-1.3445-.4445z" fill="#000" fill-rule="nonzero"/><path id="Shape" d="m50.156 11.694c-.3904999-.3903819-1.0235001-.3903819-1.414 0l-2.849 2.85c-.2599566.2510745-.3642126.6228779-.2726972.9725073.0915155.3496295.3645604.6226744.7141899.7141899.3496294.0915154.7214328-.0127406.9725073-.2726972l2.849-2.85c.3903819-.3904999.3903819-1.0235001 0-1.414z" fill="#000" fill-rule="nonzero"/></g></g></svg>