<svg id="Layer_5" enable-background="new 0 0 64 64" height="512" viewBox="0 0 64 64" width="512" xmlns="http://www.w3.org/2000/svg"><g><g><g><path d="m36 38.49v3.51h-24-10v-3.51c0-3.31 2.04-6.27 5.13-7.46l7.87-3.03.05.15c.57 1.7 2.16 2.85 3.95 2.85.9 0 1.74-.29 2.43-.79s1.23-1.21 1.52-2.06l.05-.15 7.87 3.03c3.09 1.19 5.13 4.15 5.13 7.46z" fill="#4fc1e9"/></g><g><path d="m30 8v.84c0 1.76-.24 3.52-.71 5.22-.55-.65-1.37-1.06-2.29-1.06h-1.03c-.09-.75-.43-1.46-.97-2-.64-.64-1.51-1-2.41-1h-7.18c-.9 0-1.77.36-2.41 1-.54.54-.88 1.25-.97 2h-1.03c-.81 0-1.54.32-2.08.84l-.1-.2c-.54-1.08-.82-2.27-.82-3.48 0-1.3.32-2.56.92-3.67s1.46-2.08 2.54-2.8c1.66-1.1 3.6-1.69 5.59-1.69h3.06c2.57 0 5.12.49 7.5 1.44l1.39.56-2 3z" fill="#656d78"/></g><g><path d="m27 13c.92 0 1.74.41 2.29 1.06.44.52.71 1.2.71 1.94 0 .83-.34 1.58-.88 2.12s-1.29.88-2.12.88h-1.07-.01c.06-.33.08-.66.08-1v-4.59c0-.14-.01-.27-.03-.41z" fill="#f0d0b4"/></g><g><path d="m12 18c0 .34.02.67.08 1h-.01-1.07c-.83 0-1.58-.34-2.12-.88s-.88-1.29-.88-2.12c0-.85.35-1.62.92-2.16.54-.52 1.27-.84 2.08-.84h1.03c-.02.14-.03.27-.03.41z" fill="#f0d0b4"/></g><g><path d="m25.97 13c.02.14.03.27.03.41v4.59c0 .34-.02.67-.08 1-.32 2.34-1.81 4.3-3.85 5.29-.92.46-1.96.71-3.07.71s-2.15-.25-3.07-.71c-.7-.34-1.33-.79-1.88-1.34-1.05-1.05-1.76-2.41-1.97-3.95-.06-.33-.08-.66-.08-1v-4.59c0-.14.01-.27.03-.41.09-.75.43-1.46.97-2 .64-.64 1.51-1 2.41-1h7.18c.9 0 1.77.36 2.41 1 .54.54.88 1.25.97 2z" fill="#f0d0b4"/></g><g><path d="m22.07 24.29.93 3.71-.05.15c-.29.85-.83 1.56-1.52 2.06s-1.53.79-2.43.79c-1.79 0-3.38-1.15-3.95-2.85l-.05-.15.93-3.71c.92.46 1.96.71 3.07.71s2.15-.25 3.07-.71z" fill="#f0d0b4"/></g><g><path d="m50 48-3 3-3-3-2-2-4 4-3 3-3-2.33-6-4.67-4.26 3.73c.17.73.26 1.49.26 2.27 0 5.52-4.48 10-10 10h44v-20z" fill="#ff826e"/></g><g><path d="m21.74 49.73c.17.73.26 1.49.26 2.27 0 5.52-4.48 10-10 10s-10-4.48-10-10 4.48-10 10-10c4.74 0 8.71 3.3 9.74 7.73z" fill="#fcd770"/></g><g><circle cx="52" cy="22" fill="#fcd770" r="10"/></g></g><g><path d="m13 45h-2v2c-1.654 0-3 1.346-3 3s1.346 3 3 3h2c.552 0 1 .449 1 1s-.448 1-1 1h-3v-1h-2v3h3v2h2v-2c1.654 0 3-1.346 3-3s-1.346-3-3-3h-2c-.552 0-1-.449-1-1s.448-1 1-1h3v1h2v-3h-3z"/><path d="m51 29h2v-2c1.654 0 3-1.346 3-3s-1.346-3-3-3h-2c-.552 0-1-.449-1-1s.448-1 1-1h3v1h2v-3h-3v-2h-2v2c-1.654 0-3 1.346-3 3s1.346 3 3 3h2c.552 0 1 .449 1 1s-.448 1-1 1h-3v-1h-2v3h3z"/><path d="m52 33c6.065 0 11-4.935 11-11s-4.935-11-11-11-11 4.935-11 11 4.935 11 11 11zm0-20c4.963 0 9 4.038 9 9s-4.037 9-9 9-9-4.038-9-9 4.037-9 9-9z"/><path d="m52 37h7.586l-12.586 12.586-5-5-7.083 7.083-8.954-6.964-3.737 3.27c-.797-2.018-2.171-3.743-3.922-4.974h18.696v-4.505c0-3.697-2.318-7.073-5.769-8.4l-7.388-2.841-.618-2.473c1.715-1.073 2.992-2.773 3.511-4.781h.264c2.206 0 4-1.794 4-4 0-.79-.238-1.523-.635-2.145.415-1.641.635-3.325.635-5.018v-1.559l-2.441-.814 1.957-2.936-2.536-1.013c-2.513-1.006-5.16-1.516-7.868-1.516h-3.064c-2.191 0-4.313.643-6.139 1.858-2.448 1.632-3.909 4.363-3.909 7.306 0 1.209.268 2.413.752 3.519-.469.655-.752 1.452-.752 2.317 0 2.206 1.794 4 4 4h.263c.52 2.007 1.796 3.708 3.511 4.78l-.618 2.473-7.388 2.841c-3.45 1.327-5.768 4.703-5.768 8.401v4.505h4.695c-2.834 1.992-4.695 5.28-4.695 9 0 6.065 4.935 11 11 11h51v-2h-6v-18.586l4-4v7.586h2v-11h-11zm-3 13.414v10.586h-4v-10.586l2 2zm-6-2v12.586h-4v-10.586l3-3zm-7.917 5.918 1.917-1.918v8.586h-4v-8.289zm-8.083-6.287 4 3.111v9.844h-4zm0-30.045v-4c1.103 0 2 .897 2 2s-.897 2-2 2zm-16 0c-1.103 0-2-.897-2-2s.897-2 2-2zm.25-6h-.25c-.581 0-1.13.131-1.629.355-.241-.705-.371-1.448-.371-2.191 0-2.272 1.129-4.381 3.019-5.641 1.495-.997 3.234-1.523 5.029-1.523h3.064c2.452 0 4.85.462 7.126 1.373l.246.098-2.043 3.064 3.559 1.186v.117c0 1.186-.12 2.368-.346 3.53-.506-.231-1.063-.368-1.654-.368h-.25c-.215-.634-.556-1.221-1.043-1.708-.834-.833-1.942-1.292-3.121-1.292h-7.172c-1.179 0-2.287.459-3.121 1.292-.487.487-.828 1.074-1.043 1.708zm1.75 6v-4.585c0-.645.251-1.251.707-1.707.456-.457 1.063-.708 1.707-.708h7.172c.645 0 1.251.251 1.707.708.456.455.707 1.061.707 1.706v4.586c0 3.308-2.691 6-5.999 6-3.309 0-6.001-2.692-6.001-6zm6.001 8c.828 0 1.627-.127 2.379-.361l.576 2.304c-.462 1.233-1.631 2.057-2.956 2.057-1.324 0-2.493-.824-2.955-2.059l.575-2.303c.753.235 1.552.362 2.381.362zm-16.001 15v-2.505c0-2.875 1.803-5.501 4.487-6.534l6.97-2.681c.887 1.655 2.617 2.72 4.543 2.72 1.927 0 3.657-1.066 4.544-2.72l6.969 2.681c2.684 1.032 4.487 3.658 4.487 6.534v2.505zm0 11c0-4.962 4.037-9 9-9s9 4.038 9 9-4.037 9-9 9-9-4.038-9-9zm20 0c0-.647-.067-1.277-.175-1.893l2.175-1.904v12.797h-6.695c2.834-1.992 4.695-5.28 4.695-9zm32 9h-4v-12.586l4-4z"/></g></g></svg>