<?xml version="1.0" standalone="no"?><svg xmlns="http://www.w3.org/2000/svg" viewBox="0 0 1440 320"><path fill="#00cba9" fill-opacity="1" d="M0,32L7.5,42.7C15,53,30,75,45,74.7C60,75,75,53,90,90.7C105,128,120,224,135,234.7C150,245,165,171,180,149.3C195,128,210,160,225,144C240,128,255,64,270,42.7C285,21,300,43,315,48C330,53,345,43,360,53.3C375,64,390,96,405,112C420,128,435,128,450,117.3C465,107,480,85,495,117.3C510,149,525,235,540,261.3C555,288,570,256,585,224C600,192,615,160,630,138.7C645,117,660,107,675,106.7C690,107,705,117,720,133.3C735,149,750,171,765,197.3C780,224,795,256,810,229.3C825,203,840,117,855,74.7C870,32,885,32,900,74.7C915,117,930,203,945,245.3C960,288,975,288,990,250.7C1005,213,1020,139,1035,138.7C1050,139,1065,213,1080,234.7C1095,256,1110,224,1125,218.7C1140,213,1155,235,1170,224C1185,213,1200,171,1215,144C1230,117,1245,107,1260,133.3C1275,160,1290,224,1305,250.7C1320,277,1335,267,1350,245.3C1365,224,1380,192,1395,202.7C1410,213,1425,267,1433,293.3L1440,320L1440,0L1432.5,0C1425,0,1410,0,1395,0C1380,0,1365,0,1350,0C1335,0,1320,0,1305,0C1290,0,1275,0,1260,0C1245,0,1230,0,1215,0C1200,0,1185,0,1170,0C1155,0,1140,0,1125,0C1110,0,1095,0,1080,0C1065,0,1050,0,1035,0C1020,0,1005,0,990,0C975,0,960,0,945,0C930,0,915,0,900,0C885,0,870,0,855,0C840,0,825,0,810,0C795,0,780,0,765,0C750,0,735,0,720,0C705,0,690,0,675,0C660,0,645,0,630,0C615,0,600,0,585,0C570,0,555,0,540,0C525,0,510,0,495,0C480,0,465,0,450,0C435,0,420,0,405,0C390,0,375,0,360,0C345,0,330,0,315,0C300,0,285,0,270,0C255,0,240,0,225,0C210,0,195,0,180,0C165,0,150,0,135,0C120,0,105,0,90,0C75,0,60,0,45,0C30,0,15,0,8,0L0,0Z"></path></svg>